<svg width="512" height="512" viewBox="0 0 512 512" xmlns="http://www.w3.org/2000/svg">
  <defs>
    <linearGradient id="g" x1="0" y1="0" x2="1" y2="1">
      <stop offset="0%" stop-color="#2563eb"/>
      <stop offset="100%" stop-color="#10b981"/>
    </linearGradient>
  </defs>
  <rect x="32" y="32" width="448" height="448" rx="96" fill="#ffffff" stroke="#e2e8f0"/>
  <path d="M176 128h160l64 64v224a24 24 0 0 1 -24 24H200a24 24 0 0 1 -24 -24z" fill="url(#g)"/>
  <rect x="216" y="220" width="140" height="20" rx="10" fill="white" opacity="0.9"/>
  <rect x="216" y="260" width="112" height="20" rx="10" fill="white" opacity="0.9"/>
  <circle cx="352" cy="360" r="48" fill="white"/>
  <path d="M328 360l16 16 32-36" fill="none" stroke="url(#g)" stroke-width="12" stroke-linecap="round" stroke-linejoin="round"/>
  <rect x="120" y="256" width="32" height="96" rx="8" fill="white"/>
  <rect x="96" y="280" width="96" height="32" rx="8" fill="white"/>
</svg>
